<mxfile host="app.diagrams.net" modified="2023-12-25T07:31:04.541Z" agent="Mozilla/5.0 (Windows NT 10.0; Win64; x64) AppleWebKit/537.36 (KHTML, like Gecko) Chrome/117.0.0.0 Safari/537.36" etag="bv7AZww40Ge2YnWGlTdj" version="22.1.11" type="github">
  <diagram id="ozLqQikIr1xPODg6SU1Z" name="Page-1">
    <mxGraphModel dx="1886" dy="792" grid="1" gridSize="10" guides="1" tooltips="1" connect="1" arrows="1" fold="1" page="1" pageScale="1" pageWidth="850" pageHeight="1100" math="0" shadow="0">
      <root>
        <mxCell id="0" />
        <mxCell id="1" parent="0" />
        <mxCell id="3dB66GsX0v46Dn2yX4f1-1" value="提交表单，调用功能插件" style="rounded=0;whiteSpace=wrap;html=1;" vertex="1" parent="1">
          <mxGeometry x="280" y="40" width="120" height="60" as="geometry" />
        </mxCell>
        <mxCell id="3dB66GsX0v46Dn2yX4f1-4" value="项目安装NPM插件" style="rounded=0;whiteSpace=wrap;html=1;" vertex="1" parent="1">
          <mxGeometry x="80" y="40" width="120" height="60" as="geometry" />
        </mxCell>
        <mxCell id="3dB66GsX0v46Dn2yX4f1-7" value="数据可视化展示" style="rounded=0;whiteSpace=wrap;html=1;" vertex="1" parent="1">
          <mxGeometry x="500" y="200" width="120" height="60" as="geometry" />
        </mxCell>
        <mxCell id="3dB66GsX0v46Dn2yX4f1-15" value="List（展示所有表单，根据规则高亮配置）" style="swimlane;fontStyle=0;childLayout=stackLayout;horizontal=1;startSize=30;horizontalStack=0;resizeParent=1;resizeParentMax=0;resizeLast=0;collapsible=1;marginBottom=0;whiteSpace=wrap;html=1;" vertex="1" parent="1">
          <mxGeometry x="890" y="70" width="140" height="120" as="geometry" />
        </mxCell>
        <mxCell id="3dB66GsX0v46Dn2yX4f1-18" value="Item 3" style="text;strokeColor=none;fillColor=none;align=left;verticalAlign=middle;spacingLeft=4;spacingRight=4;overflow=hidden;points=[[0,0.5],[1,0.5]];portConstraint=eastwest;rotatable=0;whiteSpace=wrap;html=1;" vertex="1" parent="3dB66GsX0v46Dn2yX4f1-15">
          <mxGeometry y="30" width="140" height="30" as="geometry" />
        </mxCell>
        <mxCell id="3dB66GsX0v46Dn2yX4f1-16" value="&lt;b&gt;&lt;i&gt;&lt;font color=&quot;#ff3333&quot;&gt;Item 1&lt;/font&gt;&lt;/i&gt;&lt;/b&gt;" style="text;strokeColor=none;fillColor=none;align=left;verticalAlign=middle;spacingLeft=4;spacingRight=4;overflow=hidden;points=[[0,0.5],[1,0.5]];portConstraint=eastwest;rotatable=0;whiteSpace=wrap;html=1;" vertex="1" parent="3dB66GsX0v46Dn2yX4f1-15">
          <mxGeometry y="60" width="140" height="30" as="geometry" />
        </mxCell>
        <mxCell id="3dB66GsX0v46Dn2yX4f1-17" value="Item 2" style="text;strokeColor=none;fillColor=none;align=left;verticalAlign=middle;spacingLeft=4;spacingRight=4;overflow=hidden;points=[[0,0.5],[1,0.5]];portConstraint=eastwest;rotatable=0;whiteSpace=wrap;html=1;" vertex="1" parent="3dB66GsX0v46Dn2yX4f1-15">
          <mxGeometry y="90" width="140" height="30" as="geometry" />
        </mxCell>
        <mxCell id="3dB66GsX0v46Dn2yX4f1-21" value="是否配置" style="rhombus;whiteSpace=wrap;html=1;" vertex="1" parent="1">
          <mxGeometry x="100" y="480" width="80" height="80" as="geometry" />
        </mxCell>
        <mxCell id="3dB66GsX0v46Dn2yX4f1-22" value="后台悬浮入口" style="rounded=0;whiteSpace=wrap;html=1;" vertex="1" parent="1">
          <mxGeometry x="80" y="140" width="120" height="60" as="geometry" />
        </mxCell>
        <mxCell id="3dB66GsX0v46Dn2yX4f1-26" value="" style="endArrow=classic;html=1;rounded=0;exitX=0.5;exitY=1;exitDx=0;exitDy=0;entryX=0.5;entryY=0;entryDx=0;entryDy=0;" edge="1" parent="1" source="3dB66GsX0v46Dn2yX4f1-4" target="3dB66GsX0v46Dn2yX4f1-22">
          <mxGeometry width="50" height="50" relative="1" as="geometry">
            <mxPoint x="400" y="320" as="sourcePoint" />
            <mxPoint x="450" y="270" as="targetPoint" />
          </mxGeometry>
        </mxCell>
        <mxCell id="3dB66GsX0v46Dn2yX4f1-28" value="配置页面" style="rounded=0;whiteSpace=wrap;html=1;" vertex="1" parent="1">
          <mxGeometry x="80" y="250" width="120" height="60" as="geometry" />
        </mxCell>
        <mxCell id="3dB66GsX0v46Dn2yX4f1-29" value="" style="endArrow=classic;html=1;rounded=0;exitX=0.5;exitY=1;exitDx=0;exitDy=0;entryX=0.5;entryY=0;entryDx=0;entryDy=0;" edge="1" parent="1" source="3dB66GsX0v46Dn2yX4f1-22" target="3dB66GsX0v46Dn2yX4f1-28">
          <mxGeometry width="50" height="50" relative="1" as="geometry">
            <mxPoint x="400" y="320" as="sourcePoint" />
            <mxPoint x="450" y="270" as="targetPoint" />
          </mxGeometry>
        </mxCell>
        <mxCell id="3dB66GsX0v46Dn2yX4f1-30" value="配置&lt;br&gt;1、select 选择项目project&lt;br&gt;2、选择表单ID" style="rounded=0;whiteSpace=wrap;html=1;" vertex="1" parent="1">
          <mxGeometry x="80" y="360" width="120" height="60" as="geometry" />
        </mxCell>
        <mxCell id="3dB66GsX0v46Dn2yX4f1-31" value="" style="endArrow=classic;html=1;rounded=0;exitX=0.5;exitY=1;exitDx=0;exitDy=0;entryX=0.5;entryY=0;entryDx=0;entryDy=0;" edge="1" parent="1" source="3dB66GsX0v46Dn2yX4f1-28" target="3dB66GsX0v46Dn2yX4f1-30">
          <mxGeometry width="50" height="50" relative="1" as="geometry">
            <mxPoint x="400" y="320" as="sourcePoint" />
            <mxPoint x="450" y="270" as="targetPoint" />
          </mxGeometry>
        </mxCell>
        <mxCell id="3dB66GsX0v46Dn2yX4f1-32" value="" style="endArrow=classic;html=1;rounded=0;exitX=0.5;exitY=1;exitDx=0;exitDy=0;" edge="1" parent="1" source="3dB66GsX0v46Dn2yX4f1-30" target="3dB66GsX0v46Dn2yX4f1-21">
          <mxGeometry width="50" height="50" relative="1" as="geometry">
            <mxPoint x="400" y="320" as="sourcePoint" />
            <mxPoint x="450" y="270" as="targetPoint" />
          </mxGeometry>
        </mxCell>
        <mxCell id="3dB66GsX0v46Dn2yX4f1-34" value="展示可视化配置" style="swimlane;fontStyle=0;childLayout=stackLayout;horizontal=1;startSize=30;horizontalStack=0;resizeParent=1;resizeParentMax=0;resizeLast=0;collapsible=1;marginBottom=0;whiteSpace=wrap;html=1;" vertex="1" parent="1">
          <mxGeometry x="70" y="760" width="140" height="120" as="geometry" />
        </mxCell>
        <mxCell id="3dB66GsX0v46Dn2yX4f1-35" value="Item 3" style="text;strokeColor=none;fillColor=none;align=left;verticalAlign=middle;spacingLeft=4;spacingRight=4;overflow=hidden;points=[[0,0.5],[1,0.5]];portConstraint=eastwest;rotatable=0;whiteSpace=wrap;html=1;" vertex="1" parent="3dB66GsX0v46Dn2yX4f1-34">
          <mxGeometry y="30" width="140" height="30" as="geometry" />
        </mxCell>
        <mxCell id="3dB66GsX0v46Dn2yX4f1-36" value="Item 1" style="text;strokeColor=none;fillColor=none;align=left;verticalAlign=middle;spacingLeft=4;spacingRight=4;overflow=hidden;points=[[0,0.5],[1,0.5]];portConstraint=eastwest;rotatable=0;whiteSpace=wrap;html=1;" vertex="1" parent="3dB66GsX0v46Dn2yX4f1-34">
          <mxGeometry y="60" width="140" height="30" as="geometry" />
        </mxCell>
        <mxCell id="3dB66GsX0v46Dn2yX4f1-37" value="Item 2" style="text;strokeColor=none;fillColor=none;align=left;verticalAlign=middle;spacingLeft=4;spacingRight=4;overflow=hidden;points=[[0,0.5],[1,0.5]];portConstraint=eastwest;rotatable=0;whiteSpace=wrap;html=1;" vertex="1" parent="3dB66GsX0v46Dn2yX4f1-34">
          <mxGeometry y="90" width="140" height="30" as="geometry" />
        </mxCell>
        <mxCell id="3dB66GsX0v46Dn2yX4f1-43" value="" style="endArrow=classic;html=1;rounded=0;exitX=0.5;exitY=1;exitDx=0;exitDy=0;entryX=0.5;entryY=0;entryDx=0;entryDy=0;" edge="1" parent="1" source="3dB66GsX0v46Dn2yX4f1-21" target="3dB66GsX0v46Dn2yX4f1-48">
          <mxGeometry relative="1" as="geometry">
            <mxPoint x="370" y="490" as="sourcePoint" />
            <mxPoint x="470" y="490" as="targetPoint" />
          </mxGeometry>
        </mxCell>
        <mxCell id="3dB66GsX0v46Dn2yX4f1-44" value="是" style="edgeLabel;resizable=0;html=1;align=center;verticalAlign=middle;" connectable="0" vertex="1" parent="3dB66GsX0v46Dn2yX4f1-43">
          <mxGeometry relative="1" as="geometry" />
        </mxCell>
        <mxCell id="3dB66GsX0v46Dn2yX4f1-45" value="" style="endArrow=classic;html=1;rounded=0;exitX=1;exitY=0.5;exitDx=0;exitDy=0;entryX=0;entryY=0.5;entryDx=0;entryDy=0;" edge="1" parent="1" source="3dB66GsX0v46Dn2yX4f1-21" target="3dB66GsX0v46Dn2yX4f1-63">
          <mxGeometry relative="1" as="geometry">
            <mxPoint x="370" y="490" as="sourcePoint" />
            <mxPoint x="280" y="520" as="targetPoint" />
          </mxGeometry>
        </mxCell>
        <mxCell id="3dB66GsX0v46Dn2yX4f1-47" value="否" style="edgeLabel;html=1;align=center;verticalAlign=middle;resizable=0;points=[];" vertex="1" connectable="0" parent="3dB66GsX0v46Dn2yX4f1-45">
          <mxGeometry x="0.0338" y="-1" relative="1" as="geometry">
            <mxPoint x="-17" as="offset" />
          </mxGeometry>
        </mxCell>
        <mxCell id="3dB66GsX0v46Dn2yX4f1-48" value="调用API接口配置（传参id、项目）" style="rounded=0;whiteSpace=wrap;html=1;" vertex="1" parent="1">
          <mxGeometry x="80" y="630" width="120" height="60" as="geometry" />
        </mxCell>
        <mxCell id="3dB66GsX0v46Dn2yX4f1-49" value="" style="endArrow=classic;html=1;rounded=0;exitX=0.458;exitY=0.994;exitDx=0;exitDy=0;exitPerimeter=0;entryX=0.458;entryY=-0.01;entryDx=0;entryDy=0;entryPerimeter=0;" edge="1" parent="1" source="3dB66GsX0v46Dn2yX4f1-48" target="3dB66GsX0v46Dn2yX4f1-34">
          <mxGeometry width="50" height="50" relative="1" as="geometry">
            <mxPoint x="340" y="820" as="sourcePoint" />
            <mxPoint x="390" y="770" as="targetPoint" />
          </mxGeometry>
        </mxCell>
        <mxCell id="3dB66GsX0v46Dn2yX4f1-50" value="" style="endArrow=classic;html=1;rounded=0;exitX=1;exitY=0.5;exitDx=0;exitDy=0;entryX=0;entryY=0.5;entryDx=0;entryDy=0;" edge="1" parent="1" source="3dB66GsX0v46Dn2yX4f1-4" target="3dB66GsX0v46Dn2yX4f1-1">
          <mxGeometry width="50" height="50" relative="1" as="geometry">
            <mxPoint x="210" y="80" as="sourcePoint" />
            <mxPoint x="260" y="30" as="targetPoint" />
          </mxGeometry>
        </mxCell>
        <mxCell id="3dB66GsX0v46Dn2yX4f1-51" value="是否有配置" style="rhombus;whiteSpace=wrap;html=1;" vertex="1" parent="1">
          <mxGeometry x="300" y="190" width="80" height="80" as="geometry" />
        </mxCell>
        <mxCell id="3dB66GsX0v46Dn2yX4f1-52" value="" style="endArrow=classic;html=1;rounded=0;exitX=0.5;exitY=1;exitDx=0;exitDy=0;entryX=0.5;entryY=0;entryDx=0;entryDy=0;" edge="1" parent="1" source="3dB66GsX0v46Dn2yX4f1-1" target="3dB66GsX0v46Dn2yX4f1-51">
          <mxGeometry relative="1" as="geometry">
            <mxPoint x="520" y="80" as="sourcePoint" />
            <mxPoint x="680" y="80" as="targetPoint" />
          </mxGeometry>
        </mxCell>
        <mxCell id="3dB66GsX0v46Dn2yX4f1-55" value="调用服务接口（传参&lt;br&gt;项目project、表单ID）" style="edgeLabel;html=1;align=center;verticalAlign=middle;resizable=0;points=[];" vertex="1" connectable="0" parent="3dB66GsX0v46Dn2yX4f1-52">
          <mxGeometry x="-0.056" y="1" relative="1" as="geometry">
            <mxPoint as="offset" />
          </mxGeometry>
        </mxCell>
        <mxCell id="3dB66GsX0v46Dn2yX4f1-56" value="浏览器缓存（ID/project：{params}）" style="rounded=0;whiteSpace=wrap;html=1;" vertex="1" parent="1">
          <mxGeometry x="280" y="360" width="120" height="60" as="geometry" />
        </mxCell>
        <mxCell id="3dB66GsX0v46Dn2yX4f1-57" value="" style="endArrow=classic;html=1;rounded=0;exitX=1;exitY=0.5;exitDx=0;exitDy=0;entryX=0;entryY=0.5;entryDx=0;entryDy=0;" edge="1" parent="1" source="3dB66GsX0v46Dn2yX4f1-51" target="3dB66GsX0v46Dn2yX4f1-7">
          <mxGeometry relative="1" as="geometry">
            <mxPoint x="550" y="260" as="sourcePoint" />
            <mxPoint x="650" y="260" as="targetPoint" />
          </mxGeometry>
        </mxCell>
        <mxCell id="3dB66GsX0v46Dn2yX4f1-58" value="是" style="edgeLabel;resizable=0;html=1;align=center;verticalAlign=middle;" connectable="0" vertex="1" parent="3dB66GsX0v46Dn2yX4f1-57">
          <mxGeometry relative="1" as="geometry" />
        </mxCell>
        <mxCell id="3dB66GsX0v46Dn2yX4f1-61" value="" style="endArrow=classic;html=1;rounded=0;exitX=0.5;exitY=1;exitDx=0;exitDy=0;entryX=0.5;entryY=0;entryDx=0;entryDy=0;" edge="1" parent="1" source="3dB66GsX0v46Dn2yX4f1-51" target="3dB66GsX0v46Dn2yX4f1-56">
          <mxGeometry width="50" height="50" relative="1" as="geometry">
            <mxPoint x="480" y="220" as="sourcePoint" />
            <mxPoint x="620" y="160" as="targetPoint" />
          </mxGeometry>
        </mxCell>
        <mxCell id="3dB66GsX0v46Dn2yX4f1-168" value="否" style="edgeLabel;html=1;align=center;verticalAlign=middle;resizable=0;points=[];" vertex="1" connectable="0" parent="3dB66GsX0v46Dn2yX4f1-61">
          <mxGeometry x="-0.0316" relative="1" as="geometry">
            <mxPoint as="offset" />
          </mxGeometry>
        </mxCell>
        <mxCell id="3dB66GsX0v46Dn2yX4f1-63" value="读取浏览器缓存（ID/project：{params}）" style="rounded=0;whiteSpace=wrap;html=1;" vertex="1" parent="1">
          <mxGeometry x="280" y="490" width="120" height="60" as="geometry" />
        </mxCell>
        <mxCell id="3dB66GsX0v46Dn2yX4f1-64" value="" style="endArrow=none;dashed=1;html=1;dashPattern=1 3;strokeWidth=2;rounded=0;exitX=0.5;exitY=0;exitDx=0;exitDy=0;entryX=0.5;entryY=1;entryDx=0;entryDy=0;" edge="1" parent="1" source="3dB66GsX0v46Dn2yX4f1-63" target="3dB66GsX0v46Dn2yX4f1-56">
          <mxGeometry width="50" height="50" relative="1" as="geometry">
            <mxPoint x="580" y="430" as="sourcePoint" />
            <mxPoint x="630" y="380" as="targetPoint" />
          </mxGeometry>
        </mxCell>
        <mxCell id="3dB66GsX0v46Dn2yX4f1-65" value="" style="endArrow=classic;html=1;rounded=0;exitX=0.5;exitY=1;exitDx=0;exitDy=0;entryX=1.01;entryY=0.307;entryDx=0;entryDy=0;entryPerimeter=0;" edge="1" parent="1" source="3dB66GsX0v46Dn2yX4f1-63" target="3dB66GsX0v46Dn2yX4f1-36">
          <mxGeometry width="50" height="50" relative="1" as="geometry">
            <mxPoint x="580" y="590" as="sourcePoint" />
            <mxPoint x="340" y="810" as="targetPoint" />
            <Array as="points">
              <mxPoint x="340" y="830" />
            </Array>
          </mxGeometry>
        </mxCell>
        <mxCell id="3dB66GsX0v46Dn2yX4f1-66" value="" style="endArrow=classic;html=1;rounded=0;entryX=0.5;entryY=0;entryDx=0;entryDy=0;" edge="1" parent="1" target="3dB66GsX0v46Dn2yX4f1-68">
          <mxGeometry width="50" height="50" relative="1" as="geometry">
            <mxPoint x="140" y="880" as="sourcePoint" />
            <mxPoint x="450" y="850" as="targetPoint" />
          </mxGeometry>
        </mxCell>
        <mxCell id="3dB66GsX0v46Dn2yX4f1-68" value="编辑配置" style="rounded=0;whiteSpace=wrap;html=1;" vertex="1" parent="1">
          <mxGeometry x="80" y="948.5" width="120" height="60" as="geometry" />
        </mxCell>
        <mxCell id="3dB66GsX0v46Dn2yX4f1-71" value="字段A" style="swimlane;fontStyle=0;childLayout=stackLayout;horizontal=1;startSize=26;fillColor=none;horizontalStack=0;resizeParent=1;resizeParentMax=0;resizeLast=0;collapsible=1;marginBottom=0;whiteSpace=wrap;html=1;" vertex="1" parent="1">
          <mxGeometry x="760" y="750" width="140" height="78" as="geometry" />
        </mxCell>
        <mxCell id="3dB66GsX0v46Dn2yX4f1-72" value="+ 提示: xxxxx" style="text;strokeColor=none;fillColor=none;align=left;verticalAlign=top;spacingLeft=4;spacingRight=4;overflow=hidden;rotatable=0;points=[[0,0.5],[1,0.5]];portConstraint=eastwest;whiteSpace=wrap;html=1;" vertex="1" parent="3dB66GsX0v46Dn2yX4f1-71">
          <mxGeometry y="26" width="140" height="26" as="geometry" />
        </mxCell>
        <mxCell id="3dB66GsX0v46Dn2yX4f1-73" value="+ 高亮: 是/否" style="text;strokeColor=none;fillColor=none;align=left;verticalAlign=top;spacingLeft=4;spacingRight=4;overflow=hidden;rotatable=0;points=[[0,0.5],[1,0.5]];portConstraint=eastwest;whiteSpace=wrap;html=1;" vertex="1" parent="3dB66GsX0v46Dn2yX4f1-71">
          <mxGeometry y="52" width="140" height="26" as="geometry" />
        </mxCell>
        <mxCell id="3dB66GsX0v46Dn2yX4f1-89" value="" style="shape=curlyBracket;whiteSpace=wrap;html=1;rounded=1;labelPosition=left;verticalLabelPosition=middle;align=right;verticalAlign=middle;size=0.5;" vertex="1" parent="1">
          <mxGeometry x="200" y="880" width="480" height="200" as="geometry" />
        </mxCell>
        <mxCell id="3dB66GsX0v46Dn2yX4f1-106" value="&lt;span style=&quot;color: rgb(0, 0, 0); font-family: Helvetica; font-size: 24px; font-style: normal; font-variant-ligatures: normal; font-variant-caps: normal; font-weight: 700; letter-spacing: normal; orphans: 2; text-align: center; text-indent: 0px; text-transform: none; widows: 2; word-spacing: 0px; -webkit-text-stroke-width: 0px; background-color: rgb(251, 251, 251); text-decoration-thickness: initial; text-decoration-style: initial; text-decoration-color: initial; float: none; display: inline !important;&quot;&gt;模式1（高亮提醒）&lt;/span&gt;" style="text;whiteSpace=wrap;html=1;" vertex="1" parent="1">
          <mxGeometry x="480" y="860" width="240" height="50" as="geometry" />
        </mxCell>
        <mxCell id="3dB66GsX0v46Dn2yX4f1-107" value="字段B" style="swimlane;fontStyle=0;childLayout=stackLayout;horizontal=1;startSize=26;fillColor=none;horizontalStack=0;resizeParent=1;resizeParentMax=0;resizeLast=0;collapsible=1;marginBottom=0;whiteSpace=wrap;html=1;" vertex="1" parent="1">
          <mxGeometry x="760" y="890" width="140" height="78" as="geometry" />
        </mxCell>
        <mxCell id="3dB66GsX0v46Dn2yX4f1-108" value="+ 提示: xxxxx" style="text;strokeColor=none;fillColor=none;align=left;verticalAlign=top;spacingLeft=4;spacingRight=4;overflow=hidden;rotatable=0;points=[[0,0.5],[1,0.5]];portConstraint=eastwest;whiteSpace=wrap;html=1;" vertex="1" parent="3dB66GsX0v46Dn2yX4f1-107">
          <mxGeometry y="26" width="140" height="26" as="geometry" />
        </mxCell>
        <mxCell id="3dB66GsX0v46Dn2yX4f1-109" value="+ 高亮: 是/否" style="text;strokeColor=none;fillColor=none;align=left;verticalAlign=top;spacingLeft=4;spacingRight=4;overflow=hidden;rotatable=0;points=[[0,0.5],[1,0.5]];portConstraint=eastwest;whiteSpace=wrap;html=1;" vertex="1" parent="3dB66GsX0v46Dn2yX4f1-107">
          <mxGeometry y="52" width="140" height="26" as="geometry" />
        </mxCell>
        <mxCell id="3dB66GsX0v46Dn2yX4f1-116" value="" style="shape=curlyBracket;whiteSpace=wrap;html=1;rounded=1;labelPosition=left;verticalLabelPosition=middle;align=right;verticalAlign=middle;" vertex="1" parent="1">
          <mxGeometry x="740" y="820" width="20" height="120" as="geometry" />
        </mxCell>
        <mxCell id="3dB66GsX0v46Dn2yX4f1-128" style="edgeStyle=orthogonalEdgeStyle;rounded=0;orthogonalLoop=1;jettySize=auto;html=1;exitX=0.1;exitY=0.5;exitDx=0;exitDy=0;exitPerimeter=0;entryX=0.958;entryY=0.404;entryDx=0;entryDy=0;entryPerimeter=0;" edge="1" parent="1" source="3dB66GsX0v46Dn2yX4f1-116" target="3dB66GsX0v46Dn2yX4f1-106">
          <mxGeometry relative="1" as="geometry" />
        </mxCell>
        <mxCell id="3dB66GsX0v46Dn2yX4f1-129" value="字段A" style="swimlane;fontStyle=0;childLayout=stackLayout;horizontal=1;startSize=26;fillColor=none;horizontalStack=0;resizeParent=1;resizeParentMax=0;resizeLast=0;collapsible=1;marginBottom=0;whiteSpace=wrap;html=1;" vertex="1" parent="1">
          <mxGeometry x="950" y="950" width="140" height="104" as="geometry" />
        </mxCell>
        <mxCell id="3dB66GsX0v46Dn2yX4f1-130" value="+ 是否校验: 是/否" style="text;strokeColor=none;fillColor=none;align=left;verticalAlign=top;spacingLeft=4;spacingRight=4;overflow=hidden;rotatable=0;points=[[0,0.5],[1,0.5]];portConstraint=eastwest;whiteSpace=wrap;html=1;" vertex="1" parent="3dB66GsX0v46Dn2yX4f1-129">
          <mxGeometry y="26" width="140" height="26" as="geometry" />
        </mxCell>
        <mxCell id="3dB66GsX0v46Dn2yX4f1-131" value="+ 校验文案：xxxx" style="text;strokeColor=none;fillColor=none;align=left;verticalAlign=top;spacingLeft=4;spacingRight=4;overflow=hidden;rotatable=0;points=[[0,0.5],[1,0.5]];portConstraint=eastwest;whiteSpace=wrap;html=1;" vertex="1" parent="3dB66GsX0v46Dn2yX4f1-129">
          <mxGeometry y="52" width="140" height="26" as="geometry" />
        </mxCell>
        <mxCell id="3dB66GsX0v46Dn2yX4f1-140" value="+ 选择模版：A/B/C/D" style="text;strokeColor=none;fillColor=none;align=left;verticalAlign=top;spacingLeft=4;spacingRight=4;overflow=hidden;rotatable=0;points=[[0,0.5],[1,0.5]];portConstraint=eastwest;whiteSpace=wrap;html=1;" vertex="1" parent="3dB66GsX0v46Dn2yX4f1-129">
          <mxGeometry y="78" width="140" height="26" as="geometry" />
        </mxCell>
        <mxCell id="3dB66GsX0v46Dn2yX4f1-132" value="&lt;span style=&quot;color: rgb(0, 0, 0); font-family: Helvetica; font-size: 24px; font-style: normal; font-variant-ligatures: normal; font-variant-caps: normal; font-weight: 700; letter-spacing: normal; orphans: 2; text-align: center; text-indent: 0px; text-transform: none; widows: 2; word-spacing: 0px; -webkit-text-stroke-width: 0px; background-color: rgb(251, 251, 251); text-decoration-thickness: initial; text-decoration-style: initial; text-decoration-color: initial; float: none; display: inline !important;&quot;&gt;模式2（校验/提示）&lt;/span&gt;" style="text;whiteSpace=wrap;html=1;" vertex="1" parent="1">
          <mxGeometry x="480" y="1060" width="240" height="50" as="geometry" />
        </mxCell>
        <mxCell id="3dB66GsX0v46Dn2yX4f1-136" value="" style="shape=curlyBracket;whiteSpace=wrap;html=1;rounded=1;labelPosition=left;verticalLabelPosition=middle;align=right;verticalAlign=middle;" vertex="1" parent="1">
          <mxGeometry x="930" y="1020" width="20" height="120" as="geometry" />
        </mxCell>
        <mxCell id="3dB66GsX0v46Dn2yX4f1-137" style="edgeStyle=orthogonalEdgeStyle;rounded=0;orthogonalLoop=1;jettySize=auto;html=1;exitX=0.1;exitY=0.5;exitDx=0;exitDy=0;exitPerimeter=0;entryX=0.958;entryY=0.404;entryDx=0;entryDy=0;entryPerimeter=0;" edge="1" parent="1" source="3dB66GsX0v46Dn2yX4f1-136" target="3dB66GsX0v46Dn2yX4f1-132">
          <mxGeometry relative="1" as="geometry" />
        </mxCell>
        <mxCell id="3dB66GsX0v46Dn2yX4f1-142" value="字段B" style="swimlane;fontStyle=0;childLayout=stackLayout;horizontal=1;startSize=26;fillColor=none;horizontalStack=0;resizeParent=1;resizeParentMax=0;resizeLast=0;collapsible=1;marginBottom=0;whiteSpace=wrap;html=1;" vertex="1" parent="1">
          <mxGeometry x="950" y="1090" width="140" height="104" as="geometry" />
        </mxCell>
        <mxCell id="3dB66GsX0v46Dn2yX4f1-143" value="+ 是否校验: 是/否" style="text;strokeColor=none;fillColor=none;align=left;verticalAlign=top;spacingLeft=4;spacingRight=4;overflow=hidden;rotatable=0;points=[[0,0.5],[1,0.5]];portConstraint=eastwest;whiteSpace=wrap;html=1;" vertex="1" parent="3dB66GsX0v46Dn2yX4f1-142">
          <mxGeometry y="26" width="140" height="26" as="geometry" />
        </mxCell>
        <mxCell id="3dB66GsX0v46Dn2yX4f1-144" value="+ 校验文案：xxxx" style="text;strokeColor=none;fillColor=none;align=left;verticalAlign=top;spacingLeft=4;spacingRight=4;overflow=hidden;rotatable=0;points=[[0,0.5],[1,0.5]];portConstraint=eastwest;whiteSpace=wrap;html=1;" vertex="1" parent="3dB66GsX0v46Dn2yX4f1-142">
          <mxGeometry y="52" width="140" height="26" as="geometry" />
        </mxCell>
        <mxCell id="3dB66GsX0v46Dn2yX4f1-145" value="+ 选择模版：A/B/C/D" style="text;strokeColor=none;fillColor=none;align=left;verticalAlign=top;spacingLeft=4;spacingRight=4;overflow=hidden;rotatable=0;points=[[0,0.5],[1,0.5]];portConstraint=eastwest;whiteSpace=wrap;html=1;" vertex="1" parent="3dB66GsX0v46Dn2yX4f1-142">
          <mxGeometry y="78" width="140" height="26" as="geometry" />
        </mxCell>
        <mxCell id="3dB66GsX0v46Dn2yX4f1-146" value="保存配置" style="rounded=0;whiteSpace=wrap;html=1;" vertex="1" parent="1">
          <mxGeometry x="1890" y="828" width="120" height="60" as="geometry" />
        </mxCell>
        <mxCell id="3dB66GsX0v46Dn2yX4f1-147" value="" style="edgeStyle=elbowEdgeStyle;elbow=horizontal;endArrow=classic;html=1;curved=0;rounded=0;endSize=8;startSize=8;exitX=1;exitY=0.25;exitDx=0;exitDy=0;entryX=0;entryY=0.5;entryDx=0;entryDy=0;" edge="1" parent="1" source="3dB66GsX0v46Dn2yX4f1-71" target="3dB66GsX0v46Dn2yX4f1-146">
          <mxGeometry width="50" height="50" relative="1" as="geometry">
            <mxPoint x="850" y="920" as="sourcePoint" />
            <mxPoint x="900" y="870" as="targetPoint" />
          </mxGeometry>
        </mxCell>
        <mxCell id="3dB66GsX0v46Dn2yX4f1-148" value="" style="edgeStyle=elbowEdgeStyle;elbow=horizontal;endArrow=classic;html=1;curved=0;rounded=0;endSize=8;startSize=8;exitX=1.002;exitY=0.248;exitDx=0;exitDy=0;exitPerimeter=0;entryX=0;entryY=0.5;entryDx=0;entryDy=0;" edge="1" parent="1" source="3dB66GsX0v46Dn2yX4f1-108" target="3dB66GsX0v46Dn2yX4f1-146">
          <mxGeometry width="50" height="50" relative="1" as="geometry">
            <mxPoint x="910" y="779" as="sourcePoint" />
            <mxPoint x="1450" y="900" as="targetPoint" />
          </mxGeometry>
        </mxCell>
        <mxCell id="3dB66GsX0v46Dn2yX4f1-161" value="" style="edgeStyle=orthogonalEdgeStyle;rounded=0;orthogonalLoop=1;jettySize=auto;html=1;" edge="1" parent="1" source="3dB66GsX0v46Dn2yX4f1-152" target="3dB66GsX0v46Dn2yX4f1-160">
          <mxGeometry relative="1" as="geometry" />
        </mxCell>
        <mxCell id="3dB66GsX0v46Dn2yX4f1-162" value="是" style="edgeLabel;html=1;align=center;verticalAlign=middle;resizable=0;points=[];" vertex="1" connectable="0" parent="3dB66GsX0v46Dn2yX4f1-161">
          <mxGeometry x="-0.0307" relative="1" as="geometry">
            <mxPoint as="offset" />
          </mxGeometry>
        </mxCell>
        <mxCell id="3dB66GsX0v46Dn2yX4f1-164" value="" style="edgeStyle=orthogonalEdgeStyle;rounded=0;orthogonalLoop=1;jettySize=auto;html=1;" edge="1" parent="1" source="3dB66GsX0v46Dn2yX4f1-152" target="3dB66GsX0v46Dn2yX4f1-163">
          <mxGeometry relative="1" as="geometry" />
        </mxCell>
        <mxCell id="3dB66GsX0v46Dn2yX4f1-165" value="否" style="edgeLabel;html=1;align=center;verticalAlign=middle;resizable=0;points=[];" vertex="1" connectable="0" parent="3dB66GsX0v46Dn2yX4f1-164">
          <mxGeometry x="-0.2049" y="-2" relative="1" as="geometry">
            <mxPoint as="offset" />
          </mxGeometry>
        </mxCell>
        <mxCell id="3dB66GsX0v46Dn2yX4f1-152" value="是否强校验" style="rhombus;whiteSpace=wrap;html=1;" vertex="1" parent="1">
          <mxGeometry x="1275" y="1040" width="80" height="80" as="geometry" />
        </mxCell>
        <mxCell id="3dB66GsX0v46Dn2yX4f1-153" value="" style="edgeStyle=elbowEdgeStyle;elbow=horizontal;endArrow=classic;html=1;curved=0;rounded=0;endSize=8;startSize=8;exitX=1;exitY=0.5;exitDx=0;exitDy=0;entryX=0;entryY=0.5;entryDx=0;entryDy=0;" edge="1" parent="1" source="3dB66GsX0v46Dn2yX4f1-131" target="3dB66GsX0v46Dn2yX4f1-152">
          <mxGeometry width="50" height="50" relative="1" as="geometry">
            <mxPoint x="850" y="1030" as="sourcePoint" />
            <mxPoint x="1210" y="1080" as="targetPoint" />
          </mxGeometry>
        </mxCell>
        <mxCell id="3dB66GsX0v46Dn2yX4f1-154" value="保存配置&lt;br&gt;接口（ID/project：{params}）" style="rounded=0;whiteSpace=wrap;html=1;fontStyle=1" vertex="1" parent="1">
          <mxGeometry x="1900" y="838" width="120" height="60" as="geometry" />
        </mxCell>
        <mxCell id="3dB66GsX0v46Dn2yX4f1-156" value="" style="edgeStyle=elbowEdgeStyle;elbow=horizontal;endArrow=classic;html=1;curved=0;rounded=0;endSize=8;startSize=8;exitX=1;exitY=0.5;exitDx=0;exitDy=0;entryX=0;entryY=0.5;entryDx=0;entryDy=0;" edge="1" parent="1" source="3dB66GsX0v46Dn2yX4f1-144" target="3dB66GsX0v46Dn2yX4f1-152">
          <mxGeometry width="50" height="50" relative="1" as="geometry">
            <mxPoint x="1120" y="1160" as="sourcePoint" />
            <mxPoint x="1250" y="1225" as="targetPoint" />
          </mxGeometry>
        </mxCell>
        <mxCell id="3dB66GsX0v46Dn2yX4f1-160" value="1、强提示文案&lt;br&gt;2、推送企业微信通知" style="rounded=1;whiteSpace=wrap;html=1;" vertex="1" parent="1">
          <mxGeometry x="1460" y="1050" width="120" height="60" as="geometry" />
        </mxCell>
        <mxCell id="3dB66GsX0v46Dn2yX4f1-163" value="辅助tips提示" style="whiteSpace=wrap;html=1;" vertex="1" parent="1">
          <mxGeometry x="1255" y="1210" width="120" height="60" as="geometry" />
        </mxCell>
        <mxCell id="3dB66GsX0v46Dn2yX4f1-166" value="" style="edgeStyle=elbowEdgeStyle;elbow=vertical;endArrow=classic;html=1;curved=0;rounded=0;endSize=8;startSize=8;exitX=0.5;exitY=0;exitDx=0;exitDy=0;entryX=0.5;entryY=1;entryDx=0;entryDy=0;" edge="1" parent="1" source="3dB66GsX0v46Dn2yX4f1-160" target="3dB66GsX0v46Dn2yX4f1-154">
          <mxGeometry width="50" height="50" relative="1" as="geometry">
            <mxPoint x="1300" y="1030" as="sourcePoint" />
            <mxPoint x="1350" y="980" as="targetPoint" />
          </mxGeometry>
        </mxCell>
        <mxCell id="3dB66GsX0v46Dn2yX4f1-167" value="" style="edgeStyle=elbowEdgeStyle;elbow=vertical;endArrow=classic;html=1;curved=0;rounded=0;endSize=8;startSize=8;exitX=1;exitY=0.5;exitDx=0;exitDy=0;entryX=0.5;entryY=1;entryDx=0;entryDy=0;" edge="1" parent="1" source="3dB66GsX0v46Dn2yX4f1-163" target="3dB66GsX0v46Dn2yX4f1-154">
          <mxGeometry width="50" height="50" relative="1" as="geometry">
            <mxPoint x="1430" y="1310" as="sourcePoint" />
            <mxPoint x="1480" y="1260" as="targetPoint" />
            <Array as="points">
              <mxPoint x="1970" y="1240" />
            </Array>
          </mxGeometry>
        </mxCell>
        <mxCell id="3dB66GsX0v46Dn2yX4f1-169" value="" style="edgeStyle=elbowEdgeStyle;elbow=horizontal;endArrow=classic;html=1;curved=0;rounded=0;endSize=8;startSize=8;entryX=0;entryY=0.5;entryDx=0;entryDy=0;" edge="1" parent="1" source="3dB66GsX0v46Dn2yX4f1-7" target="3dB66GsX0v46Dn2yX4f1-16">
          <mxGeometry width="50" height="50" relative="1" as="geometry">
            <mxPoint x="840" y="330" as="sourcePoint" />
            <mxPoint x="890" y="280" as="targetPoint" />
          </mxGeometry>
        </mxCell>
        <mxCell id="3dB66GsX0v46Dn2yX4f1-172" value="模式1 高亮展示&lt;br&gt;" style="edgeLabel;html=1;align=center;verticalAlign=middle;resizable=0;points=[];" vertex="1" connectable="0" parent="3dB66GsX0v46Dn2yX4f1-169">
          <mxGeometry x="0.6372" y="-1" relative="1" as="geometry">
            <mxPoint as="offset" />
          </mxGeometry>
        </mxCell>
        <mxCell id="3dB66GsX0v46Dn2yX4f1-170" value="" style="edgeStyle=elbowEdgeStyle;elbow=horizontal;endArrow=classic;html=1;curved=0;rounded=0;endSize=8;startSize=8;exitX=1;exitY=0.5;exitDx=0;exitDy=0;entryX=0.008;entryY=0.622;entryDx=0;entryDy=0;entryPerimeter=0;" edge="1" parent="1" source="3dB66GsX0v46Dn2yX4f1-7" target="3dB66GsX0v46Dn2yX4f1-179">
          <mxGeometry width="50" height="50" relative="1" as="geometry">
            <mxPoint x="690" y="415" as="sourcePoint" />
            <mxPoint x="890" y="315" as="targetPoint" />
          </mxGeometry>
        </mxCell>
        <mxCell id="3dB66GsX0v46Dn2yX4f1-173" value="模式2 校验/提示" style="edgeLabel;html=1;align=center;verticalAlign=middle;resizable=0;points=[];" vertex="1" connectable="0" parent="3dB66GsX0v46Dn2yX4f1-170">
          <mxGeometry x="0.567" y="3" relative="1" as="geometry">
            <mxPoint as="offset" />
          </mxGeometry>
        </mxCell>
        <mxCell id="3dB66GsX0v46Dn2yX4f1-179" value="&lt;h1&gt;提示&lt;/h1&gt;&lt;p&gt;Lorem ipsum dolor sit amet, consectetur adipisicing elit, sed do eiusmod tempor incididunt ut labore et dolore magna aliqua.&lt;/p&gt;" style="text;html=1;strokeColor=none;fillColor=none;spacing=5;spacingTop=-20;whiteSpace=wrap;overflow=hidden;rounded=0;" vertex="1" parent="1">
          <mxGeometry x="890" y="240" width="190" height="120" as="geometry" />
        </mxCell>
        <mxCell id="3dB66GsX0v46Dn2yX4f1-181" value="" style="edgeStyle=elbowEdgeStyle;elbow=horizontal;endArrow=classic;html=1;curved=0;rounded=0;endSize=8;startSize=8;exitX=1;exitY=0.5;exitDx=0;exitDy=0;entryX=0;entryY=0;entryDx=0;entryDy=25.000000000000004;entryPerimeter=0;" edge="1" parent="1" source="3dB66GsX0v46Dn2yX4f1-7" target="3dB66GsX0v46Dn2yX4f1-184">
          <mxGeometry width="50" height="50" relative="1" as="geometry">
            <mxPoint x="630" y="240" as="sourcePoint" />
            <mxPoint x="870" y="430" as="targetPoint" />
          </mxGeometry>
        </mxCell>
        <mxCell id="3dB66GsX0v46Dn2yX4f1-182" value="模式3 定时提醒" style="edgeLabel;html=1;align=center;verticalAlign=middle;resizable=0;points=[];" vertex="1" connectable="0" parent="3dB66GsX0v46Dn2yX4f1-181">
          <mxGeometry x="0.567" y="3" relative="1" as="geometry">
            <mxPoint x="31" y="-2" as="offset" />
          </mxGeometry>
        </mxCell>
        <mxCell id="3dB66GsX0v46Dn2yX4f1-184" value="" style="verticalLabelPosition=bottom;verticalAlign=top;html=1;shape=mxgraph.basic.layered_rect;dx=10;outlineConnect=0;whiteSpace=wrap;" vertex="1" parent="1">
          <mxGeometry x="890" y="400" width="110" height="60" as="geometry" />
        </mxCell>
        <mxCell id="3dB66GsX0v46Dn2yX4f1-185" value="定时器&lt;br&gt;（提醒相关配置）" style="text;html=1;align=center;verticalAlign=middle;resizable=0;points=[];autosize=1;strokeColor=none;fillColor=none;" vertex="1" parent="1">
          <mxGeometry x="880" y="400" width="120" height="40" as="geometry" />
        </mxCell>
        <mxCell id="3dB66GsX0v46Dn2yX4f1-187" value="" style="edgeStyle=elbowEdgeStyle;elbow=horizontal;endArrow=classic;html=1;curved=0;rounded=0;endSize=8;startSize=8;exitX=1;exitY=0.5;exitDx=0;exitDy=0;entryX=0;entryY=0;entryDx=0;entryDy=25.000000000000004;entryPerimeter=0;" edge="1" parent="1" source="3dB66GsX0v46Dn2yX4f1-7" target="3dB66GsX0v46Dn2yX4f1-189">
          <mxGeometry width="50" height="50" relative="1" as="geometry">
            <mxPoint x="630" y="240" as="sourcePoint" />
            <mxPoint x="890" y="540" as="targetPoint" />
          </mxGeometry>
        </mxCell>
        <mxCell id="3dB66GsX0v46Dn2yX4f1-188" value="..." style="edgeLabel;html=1;align=center;verticalAlign=middle;resizable=0;points=[];" vertex="1" connectable="0" parent="3dB66GsX0v46Dn2yX4f1-187">
          <mxGeometry x="0.567" y="3" relative="1" as="geometry">
            <mxPoint x="31" y="-2" as="offset" />
          </mxGeometry>
        </mxCell>
        <mxCell id="3dB66GsX0v46Dn2yX4f1-189" value="" style="verticalLabelPosition=bottom;verticalAlign=top;html=1;shape=mxgraph.basic.layered_rect;dx=10;outlineConnect=0;whiteSpace=wrap;" vertex="1" parent="1">
          <mxGeometry x="890" y="510" width="120" height="60" as="geometry" />
        </mxCell>
        <mxCell id="3dB66GsX0v46Dn2yX4f1-190" value="其他模式&lt;br&gt;（可拓展）..." style="text;html=1;align=center;verticalAlign=middle;resizable=0;points=[];autosize=1;strokeColor=none;fillColor=none;" vertex="1" parent="1">
          <mxGeometry x="900" y="510" width="90" height="40" as="geometry" />
        </mxCell>
      </root>
    </mxGraphModel>
  </diagram>
</mxfile>
